<mxfile modified="2022-05-20T02:19:26.115Z" host="app.diagrams.net" agent="5.0 (Windows NT 10.0; Win64; x64) AppleWebKit/537.36 (KHTML, like Gecko) Chrome/101.0.4951.54 Safari/537.36" etag="WE1ACaO3UKvnes7LARIT" compressed="false" version="18.0.8" type="google">
  <diagram name="Functionality/System Logical Module/Scheduled Tasks" id="SOeO_8X5a3N5y0ZqyGSG">
    <mxGraphModel grid="1" page="1" gridSize="10" guides="1" tooltips="1" connect="1" arrows="1" fold="1" pageScale="1" pageWidth="827" pageHeight="1169" math="0" shadow="0">
      <root>
        <mxCell id="OM8NRhFuQUq9bNH01V5G-0" />
        <mxCell id="OM8NRhFuQUq9bNH01V5G-1" value="Diagram/Use Cases" parent="OM8NRhFuQUq9bNH01V5G-0" />
        <mxCell id="PXaz9dUa9yEy_tTSe90J-0" value="&lt;font style=&quot;font-size: 12px ; font-weight: normal&quot;&gt;&lt;i&gt;&lt;span style=&quot;font-size: 12px&quot;&gt;Diagram: Base System Logical Module -&amp;nbsp;&lt;/span&gt;&lt;span style=&quot;font-size: 12px&quot;&gt;Functionality -&amp;nbsp;&lt;/span&gt;Scheduling&lt;/i&gt;&lt;/font&gt;" style="text;strokeColor=none;fillColor=none;html=1;fontSize=12;fontStyle=1;verticalAlign=middle;align=left;shadow=0;glass=0;comic=0;opacity=30;fontColor=#808080;" vertex="1" parent="OM8NRhFuQUq9bNH01V5G-1">
          <mxGeometry x="120" y="700" width="520" height="20" as="geometry" />
        </mxCell>
        <mxCell id="42suX4OQcUf3UpnRtS2N-9" style="edgeStyle=orthogonalEdgeStyle;rounded=0;orthogonalLoop=1;jettySize=auto;html=1;entryX=0;entryY=0.5;entryDx=0;entryDy=0;strokeColor=#000000;strokeWidth=1;" edge="1" parent="OM8NRhFuQUq9bNH01V5G-1" source="42suX4OQcUf3UpnRtS2N-0" target="42suX4OQcUf3UpnRtS2N-1">
          <mxGeometry relative="1" as="geometry" />
        </mxCell>
        <mxCell id="42suX4OQcUf3UpnRtS2N-10" style="edgeStyle=orthogonalEdgeStyle;rounded=0;orthogonalLoop=1;jettySize=auto;html=1;entryX=0;entryY=0.5;entryDx=0;entryDy=0;strokeColor=#000000;strokeWidth=1;" edge="1" parent="OM8NRhFuQUq9bNH01V5G-1" source="42suX4OQcUf3UpnRtS2N-0" target="42suX4OQcUf3UpnRtS2N-2">
          <mxGeometry relative="1" as="geometry" />
        </mxCell>
        <mxCell id="42suX4OQcUf3UpnRtS2N-11" style="edgeStyle=orthogonalEdgeStyle;rounded=0;orthogonalLoop=1;jettySize=auto;html=1;entryX=0;entryY=0.5;entryDx=0;entryDy=0;strokeColor=#000000;strokeWidth=1;" edge="1" parent="OM8NRhFuQUq9bNH01V5G-1" source="42suX4OQcUf3UpnRtS2N-0" target="42suX4OQcUf3UpnRtS2N-3">
          <mxGeometry relative="1" as="geometry" />
        </mxCell>
        <mxCell id="42suX4OQcUf3UpnRtS2N-12" style="edgeStyle=orthogonalEdgeStyle;rounded=0;orthogonalLoop=1;jettySize=auto;html=1;entryX=0;entryY=0.5;entryDx=0;entryDy=0;strokeColor=#000000;strokeWidth=1;" edge="1" parent="OM8NRhFuQUq9bNH01V5G-1" source="42suX4OQcUf3UpnRtS2N-0" target="42suX4OQcUf3UpnRtS2N-4">
          <mxGeometry relative="1" as="geometry" />
        </mxCell>
        <mxCell id="42suX4OQcUf3UpnRtS2N-0" value="Sys&lt;br&gt;Admin" style="shape=umlActor;verticalLabelPosition=middle;labelBackgroundColor=#ffffff;verticalAlign=middle;html=1;comic=0;strokeColor=#000000;strokeWidth=1;fillColor=none;gradientColor=#ffffff;fontSize=12;align=right;labelPosition=left;" vertex="1" parent="OM8NRhFuQUq9bNH01V5G-1">
          <mxGeometry x="170" y="320" width="20" height="40" as="geometry" />
        </mxCell>
        <mxCell id="42suX4OQcUf3UpnRtS2N-1" value="Create Scheduled Task" style="ellipse;whiteSpace=wrap;html=1;comic=1;strokeColor=#82b366;strokeWidth=2;fontSize=12;align=center;fillColor=none;" vertex="1" parent="OM8NRhFuQUq9bNH01V5G-1">
          <mxGeometry x="280" y="280" width="120" height="40" as="geometry" />
        </mxCell>
        <mxCell id="42suX4OQcUf3UpnRtS2N-2" value="Update Scheduled Task" style="ellipse;whiteSpace=wrap;html=1;comic=1;strokeColor=#82b366;strokeWidth=2;fontSize=12;align=center;fillColor=none;" vertex="1" parent="OM8NRhFuQUq9bNH01V5G-1">
          <mxGeometry x="280" y="360" width="120" height="40" as="geometry" />
        </mxCell>
        <mxCell id="42suX4OQcUf3UpnRtS2N-3" value="Change Scheduled&lt;br&gt;Task (Active/Paused)" style="ellipse;whiteSpace=wrap;html=1;comic=1;strokeColor=#82b366;strokeWidth=2;fontSize=12;align=center;fillColor=none;" vertex="1" parent="OM8NRhFuQUq9bNH01V5G-1">
          <mxGeometry x="280" y="440" width="120" height="40" as="geometry" />
        </mxCell>
        <mxCell id="42suX4OQcUf3UpnRtS2N-4" value="Delete Schedule Task" style="ellipse;whiteSpace=wrap;html=1;comic=1;strokeColor=#82b366;strokeWidth=2;fontSize=12;align=center;fillColor=none;" vertex="1" parent="OM8NRhFuQUq9bNH01V5G-1">
          <mxGeometry x="280" y="520" width="120" height="40" as="geometry" />
        </mxCell>
        <mxCell id="42suX4OQcUf3UpnRtS2N-8" style="edgeStyle=orthogonalEdgeStyle;rounded=0;orthogonalLoop=1;jettySize=auto;html=1;entryX=0;entryY=0.5;entryDx=0;entryDy=0;strokeWidth=1;" edge="1" parent="OM8NRhFuQUq9bNH01V5G-1" source="42suX4OQcUf3UpnRtS2N-6" target="42suX4OQcUf3UpnRtS2N-7">
          <mxGeometry relative="1" as="geometry" />
        </mxCell>
        <mxCell id="42suX4OQcUf3UpnRtS2N-22" style="edgeStyle=none;rounded=0;orthogonalLoop=1;jettySize=auto;html=1;endArrow=block;endFill=0;strokeColor=#000000;strokeWidth=1;" edge="1" parent="OM8NRhFuQUq9bNH01V5G-1" source="42suX4OQcUf3UpnRtS2N-6" target="42suX4OQcUf3UpnRtS2N-0">
          <mxGeometry relative="1" as="geometry">
            <mxPoint x="140" y="400" as="targetPoint" />
          </mxGeometry>
        </mxCell>
        <mxCell id="42suX4OQcUf3UpnRtS2N-6" value="Daemon" style="shape=umlActor;verticalLabelPosition=bottom;labelBackgroundColor=#ffffff;verticalAlign=top;html=1;comic=0;strokeColor=#000000;strokeWidth=1;fillColor=none;gradientColor=#ffffff;fontSize=12;align=center;" vertex="1" parent="OM8NRhFuQUq9bNH01V5G-1">
          <mxGeometry x="170" y="600" width="20" height="40" as="geometry" />
        </mxCell>
        <mxCell id="42suX4OQcUf3UpnRtS2N-7" value="Run Task on Schedule" style="ellipse;whiteSpace=wrap;html=1;comic=1;strokeColor=#82b366;strokeWidth=2;fontSize=12;align=center;fillColor=none;" vertex="1" parent="OM8NRhFuQUq9bNH01V5G-1">
          <mxGeometry x="280" y="600" width="120" height="40" as="geometry" />
        </mxCell>
        <mxCell id="42suX4OQcUf3UpnRtS2N-13" value="View Scheduled&lt;br&gt;Task" style="ellipse;whiteSpace=wrap;html=1;comic=1;strokeColor=#82b366;strokeWidth=2;fontSize=12;align=center;fillColor=none;" vertex="1" parent="OM8NRhFuQUq9bNH01V5G-1">
          <mxGeometry x="280" y="200" width="120" height="40" as="geometry" />
        </mxCell>
        <mxCell id="42suX4OQcUf3UpnRtS2N-14" value="List Scheduled&lt;br&gt;Tasks" style="ellipse;whiteSpace=wrap;html=1;comic=1;strokeColor=#82b366;strokeWidth=2;fontSize=12;align=center;fillColor=none;" vertex="1" parent="OM8NRhFuQUq9bNH01V5G-1">
          <mxGeometry x="280" y="120" width="120" height="40" as="geometry" />
        </mxCell>
        <mxCell id="42suX4OQcUf3UpnRtS2N-16" style="rounded=0;orthogonalLoop=1;jettySize=auto;html=1;entryX=0;entryY=0.5;entryDx=0;entryDy=0;strokeColor=#000000;strokeWidth=1;" edge="1" parent="OM8NRhFuQUq9bNH01V5G-1" source="42suX4OQcUf3UpnRtS2N-15" target="42suX4OQcUf3UpnRtS2N-14">
          <mxGeometry relative="1" as="geometry" />
        </mxCell>
        <mxCell id="42suX4OQcUf3UpnRtS2N-17" style="rounded=0;orthogonalLoop=1;jettySize=auto;html=1;entryX=0;entryY=0.5;entryDx=0;entryDy=0;strokeColor=#000000;strokeWidth=1;" edge="1" parent="OM8NRhFuQUq9bNH01V5G-1" source="42suX4OQcUf3UpnRtS2N-15" target="42suX4OQcUf3UpnRtS2N-13">
          <mxGeometry relative="1" as="geometry" />
        </mxCell>
        <mxCell id="42suX4OQcUf3UpnRtS2N-21" style="edgeStyle=none;rounded=0;orthogonalLoop=1;jettySize=auto;html=1;entryX=0.5;entryY=0;entryDx=0;entryDy=0;entryPerimeter=0;strokeColor=#000000;strokeWidth=1;endArrow=block;endFill=0;" edge="1" parent="OM8NRhFuQUq9bNH01V5G-1" source="42suX4OQcUf3UpnRtS2N-15" target="42suX4OQcUf3UpnRtS2N-0">
          <mxGeometry relative="1" as="geometry" />
        </mxCell>
        <mxCell id="42suX4OQcUf3UpnRtS2N-15" value="User" style="shape=umlActor;verticalLabelPosition=bottom;labelBackgroundColor=#ffffff;verticalAlign=top;html=1;comic=0;strokeColor=#000000;strokeWidth=1;fillColor=none;gradientColor=#ffffff;fontSize=12;align=center;" vertex="1" parent="OM8NRhFuQUq9bNH01V5G-1">
          <mxGeometry x="170" y="160" width="20" height="40" as="geometry" />
        </mxCell>
        <mxCell id="42suX4OQcUf3UpnRtS2N-19" style="edgeStyle=orthogonalEdgeStyle;rounded=0;orthogonalLoop=1;jettySize=auto;html=1;entryX=0;entryY=0.5;entryDx=0;entryDy=0;strokeColor=#000000;strokeWidth=1;" edge="1" parent="OM8NRhFuQUq9bNH01V5G-1" source="42suX4OQcUf3UpnRtS2N-0" target="42suX4OQcUf3UpnRtS2N-13">
          <mxGeometry relative="1" as="geometry" />
        </mxCell>
        <mxCell id="42suX4OQcUf3UpnRtS2N-18" style="edgeStyle=orthogonalEdgeStyle;rounded=0;orthogonalLoop=1;jettySize=auto;html=1;entryX=0;entryY=0.5;entryDx=0;entryDy=0;strokeColor=#000000;strokeWidth=1;" edge="1" parent="OM8NRhFuQUq9bNH01V5G-1" source="42suX4OQcUf3UpnRtS2N-0" target="42suX4OQcUf3UpnRtS2N-14">
          <mxGeometry relative="1" as="geometry" />
        </mxCell>
        <mxCell id="OM8NRhFuQUq9bNH01V5G-2" value="Title/Diagram" parent="OM8NRhFuQUq9bNH01V5G-0" />
        <mxCell id="OM8NRhFuQUq9bNH01V5G-8" value="About" parent="OM8NRhFuQUq9bNH01V5G-0" />
        <UserObject label="" tooltip="" id="OM8NRhFuQUq9bNH01V5G-9">
          <mxCell style="shape=image;html=1;verticalAlign=top;verticalLabelPosition=bottom;labelBackgroundColor=#ffffff;imageAspect=0;aspect=fixed;image=https://cdn1.iconfinder.com/data/icons/hawcons/32/699014-icon-28-information-128.png;shadow=0;dashed=0;fontFamily=Helvetica;fontSize=12;fontColor=#000000;align=center;strokeColor=#000000;fillColor=#505050;dashPattern=1 1;" vertex="1" parent="OM8NRhFuQUq9bNH01V5G-8">
            <mxGeometry x="660" y="380" width="20" height="20" as="geometry" />
          </mxCell>
        </UserObject>
      </root>
    </mxGraphModel>
  </diagram>
</mxfile>
